<svg id="Layer_1" data-name="Layer 1" xmlns="http://www.w3.org/2000/svg" viewBox="0 0 915.29 257.91"><defs><style>.cls-1{fill:#fff;}.cls-2{fill:#056bff;}</style></defs><path class="cls-1" d="M516.19,351.8q-4.19,0-7.55-.3c-2.24-.2-3.87-.4-4.86-.6a14.79,14.79,0,0,1-3.81-1.35,9.64,9.64,0,0,1-3.22-2.91,29.62,29.62,0,0,1-3-5.38,63.1,63.1,0,0,1-3-8.9h-1.95q-1.65,3.75-4.41,8.67T479,350.3H373.58q-11.5,0-19.13-3a34.41,34.41,0,0,1-12.18-7.62,26.64,26.64,0,0,1-6.43-10.17A33.63,33.63,0,0,1,334,318.76a56.73,56.73,0,0,1,3.67-20.1A107.36,107.36,0,0,1,348,278.4l5.39,2.25q-2.1,5.82-4.34,11.06a28.23,28.23,0,0,0-2.24,11.21,14.55,14.55,0,0,0,1.49,6.57,12.81,12.81,0,0,0,5.09,5.16,31.11,31.11,0,0,0,9.71,3.44,78.5,78.5,0,0,0,15.55,1.27H474a12.56,12.56,0,0,0,6.06-1.27,9.12,9.12,0,0,0,3.58-3.44,14,14,0,0,0,1.72-4.78,31.37,31.37,0,0,0,.45-5.31q0-2.08-.52-7.1c-.35-3.34-.77-7.79-1.27-13.38q-.6-6.12-1.42-14.35t-1.72-17.93q-.9-9.72-1.94-20.63t-2.1-22.42l20.93-29.9,7,128.85q.89,7.32,4.18,10.24a10.12,10.12,0,0,0,6.73,2.91h7.77V351.8ZM428.14,237.3c-.5.4-1.32,1-2.46,1.87s-2,1.47-2.47,1.86c-.7.6-1.52,1.33-2.46,2.17a5.12,5.12,0,0,0-1.72,2.47,8,8,0,0,0,2,.45,19,19,0,0,0,2.17.15c2,0,3.86.07,5.61.22a14.12,14.12,0,0,1,4.48,1,6.52,6.52,0,0,1,2.92,2.39,8,8,0,0,1,1,4.41,41.92,41.92,0,0,1-.74,7,39.94,39.94,0,0,1-2.47,8.3,34.52,34.52,0,0,1-4.26,7.47,12.64,12.64,0,0,1-6.13,4.56q-2.4.75-6.88,1.72c-3,.65-6.12,1.27-9.41,1.87s-6.51,1.1-9.64,1.49a62.83,62.83,0,0,1-7.55.6l-1.05-2.84q8.37-3.73,16.52-8.07t14.42-8.52a38.29,38.29,0,0,1-6-.45,16.31,16.31,0,0,1-5-1.57,8.41,8.41,0,0,1-3.37-3.06,9.59,9.59,0,0,1-1.19-5.09,26.65,26.65,0,0,1,3.36-12.7,71.78,71.78,0,0,1,7.62-11.51,74.57,74.57,0,0,1,8.22-8.74,41.27,41.27,0,0,1,5.31-4.26Z" transform="translate(-13 -161.3)"/><path class="cls-1" d="M580.76,351.8a64.74,64.74,0,0,1-8.59-.45,11,11,0,0,1-5.46-2.24,13.71,13.71,0,0,1-3.81-5.39,98.19,98.19,0,0,1-3.52-9.86h-2.09l-9.86,17.94H523.51a15.18,15.18,0,0,1-3.89-.68,19.4,19.4,0,0,1-4.63-2,14.49,14.49,0,0,1-3.89-3.44,7.58,7.58,0,0,1-1.64-4.79v-8.67a7.79,7.79,0,0,1,1.64-4.93,15.67,15.67,0,0,1,3.89-3.51,20.14,20.14,0,0,1,4.56-2.17,13,13,0,0,1,3.81-.75h29l4-36,23.16-12.41-6.42,39.17a9.93,9.93,0,0,0,1.94,4.85,9.66,9.66,0,0,0,3.66,2.84,16.28,16.28,0,0,0,4.93,1.28,53.64,53.64,0,0,0,5.76.29h17.79V351.8ZM574.63,259l-18.09-10.76L548.32,259l-22.42-13.3,15.4-20.48,17.79,11.06,8.52-11.06L590,238.94Z" transform="translate(-13 -161.3)"/><path class="cls-1" d="M724,351.8a24.84,24.84,0,0,1-9.34-1.5,27.39,27.39,0,0,1-8-5.53L695.71,363.6a163.53,163.53,0,0,1-28.4-12.1,107.28,107.28,0,0,1-22.87-16.3,98.23,98.23,0,0,1-6.58,9.05,21,21,0,0,1-5.83,5,18.09,18.09,0,0,1-6.58,2.1,71,71,0,0,1-8.67.45h-9.56l-1.87-.15a7.44,7.44,0,0,1-2.32-.45,25.21,25.21,0,0,1-3.06-1.35,8.33,8.33,0,0,1-2.47-1.94,8.75,8.75,0,0,1-1.64-3,14.32,14.32,0,0,1-.6-4.48v-8.23a10.13,10.13,0,0,1,1.2-5,11.57,11.57,0,0,1,3-3.59,12.2,12.2,0,0,1,3.88-2.09,12.76,12.76,0,0,1,3.89-.68h23.47c3.88,0,6.62-.94,8.22-2.84a22.71,22.71,0,0,0,3.21-5.23c1.14-2.39,2.42-5.18,3.81-8.37a54.16,54.16,0,0,1,6.36-11.06,57.87,57.87,0,0,1,8.89-9.64,41.61,41.61,0,0,1,10.84-6.8,30.37,30.37,0,0,1,12.18-2.54,23.77,23.77,0,0,1,3.59.3,7.83,7.83,0,0,1,3.66,1.64,11.59,11.59,0,0,1,3.06,4,23.55,23.55,0,0,1,2,7.47,49.57,49.57,0,0,0,5.15,17,51.11,51.11,0,0,0,10.09,13.37,10.23,10.23,0,0,0,4.19,1.95,33.42,33.42,0,0,0,8.07.74h6.73V351.8ZM697.5,334.16a50.53,50.53,0,0,1-10.24-16.59,54.36,54.36,0,0,1-3.51-16.3,44.19,44.19,0,0,0-15.1,2.39q-6.57,2.4-9.56,6.13a71.3,71.3,0,0,0,7.4,6.21q4.85,3.66,10.31,7.4t10.91,7.1a103.41,103.41,0,0,0,9.19,5.15Z" transform="translate(-13 -161.3)"/><path class="cls-1" d="M817.68,351.8q-3.13,0-7,.37a35.69,35.69,0,0,0-7.25,1.42,15.56,15.56,0,0,0-5.68,3.06,6.54,6.54,0,0,0-2.32,5.16,21,21,0,0,0,1.42,7.7,36.59,36.59,0,0,0,3.59,6.95,57.71,57.71,0,0,0,4.85,6.35c1.8,2,3.54,4.06,5.24,6.06L799.3,419.21h-1.5a92.09,92.09,0,0,1-18.46-13.9,84.89,84.89,0,0,1-12.63-15.62,64.9,64.9,0,0,1-7.18-15.62,49.42,49.42,0,0,1-2.24-13.75,83.46,83.46,0,0,1,.6-10.24,95.22,95.22,0,0,1,1.79-9.94L758,338.79a48.08,48.08,0,0,1-12.93,9.72,32.13,32.13,0,0,1-14.42,3.29,11.6,11.6,0,0,1-3.89-.75,13.71,13.71,0,0,1-3.89-2.17,11.73,11.73,0,0,1-3-3.59,9.93,9.93,0,0,1-1.19-4.85v-8.23a10.24,10.24,0,0,1,1.19-5,11.85,11.85,0,0,1,3-3.59,12.35,12.35,0,0,1,3.89-2.09,12.76,12.76,0,0,1,3.89-.68q12.69,0,21.3-2.84a42.89,42.89,0,0,0,14.42-7.77,40.54,40.54,0,0,0,9.42-11.43A89.93,89.93,0,0,0,782,285l10,3.44a191.8,191.8,0,0,1-5.38,20.48,67.85,67.85,0,0,1-7,15.09,63.32,63.32,0,0,1-4.18,5.46,35.08,35.08,0,0,1-4.78,4.86,38.86,38.86,0,0,0-2.4,7.69,55.62,55.62,0,0,0-.74,10.24,25.42,25.42,0,0,0,1.64,8.82,45,45,0,0,0,4.26,8.6,40.28,40.28,0,0,0,5.91,7.32,26.7,26.7,0,0,0,6.57,4.86l1.35-.75a24.45,24.45,0,0,1-1.12-4q-.52-2.55-1-5.61c-.29-2-.52-4.08-.67-6.13s-.22-3.91-.22-5.6a50.17,50.17,0,0,1,2.54-16.67,35.22,35.22,0,0,1,7-12.18,29.31,29.31,0,0,1,10.62-7.47,34.26,34.26,0,0,1,13.3-2.55h10.46V351.8Z" transform="translate(-13 -161.3)"/><path class="cls-1" d="M911.7,358.22a107.34,107.34,0,0,1-12.7-4.56q-7.34-3.06-15.4-7a131.61,131.61,0,0,1-11.81-6.42q-6.42-3.89-11.66-7.63-1.2,2.4-2.31,4.86A55,55,0,0,1,854.9,343a18.81,18.81,0,0,1-6.28,6.65,13.37,13.37,0,0,1-6.87,2.17H828.14a11.59,11.59,0,0,1-3.88-.75,13.58,13.58,0,0,1-3.89-2.17,11.73,11.73,0,0,1-3-3.59,9.93,9.93,0,0,1-1.19-4.85v-8.23a10.24,10.24,0,0,1,1.19-5,11.85,11.85,0,0,1,3-3.59,12.25,12.25,0,0,1,3.89-2.09,12.75,12.75,0,0,1,3.88-.68h13a14.53,14.53,0,0,0,8-2.24,11.85,11.85,0,0,0,4.56-4.48q2.68-6,6.95-13.75a115.54,115.54,0,0,1,9.64-14.8A63,63,0,0,1,882,273.69q6.36-4.85,13.08-4.85a12.36,12.36,0,0,1,5.76,1.64,24.19,24.19,0,0,1,6,4.71,36.1,36.1,0,0,1,5.39,7.55,50.33,50.33,0,0,1,4.11,10.16c.59,2,1.12,4,1.57,6.06s.92,4.06,1.42,6.05q1.18,5.24,3.36,12a78,78,0,0,0,5.6,13.23ZM871.34,306.8c.6.4,1.55,1.1,2.84,2.1a29.92,29.92,0,0,0,3.29,2.24q7.47,4.64,14.87,8.59a78.79,78.79,0,0,0,13.08,5.76c-.8-3.19-1.71-6.6-2.76-10.24a68.23,68.23,0,0,0-3.74-10.09,27.42,27.42,0,0,0-5.16-7.7,9.49,9.49,0,0,0-7-3.06,12.45,12.45,0,0,0-8.52,3.51A34.54,34.54,0,0,0,871.34,306.8Z" transform="translate(-13 -161.3)"/><circle class="cls-1" cx="120.15" cy="120.15" r="120.15"/><polygon class="cls-2" points="191.29 53.55 98.99 145.85 70.77 117.64 49.01 139.4 96.36 186.74 191.29 53.55"/></svg>